<svg width="70" height="70" viewBox="0 0 70 70" fill="none" xmlns="http://www.w3.org/2000/svg">
<circle cx="35" cy="35" r="35" fill="#EDEDED"/>
<path d="M58.906 43.882L19.9591 52.877C18.4979 53.2344 17.0367 52.2218 16.7557 50.673L11.3042 24.4624C10.967 22.9136 11.9224 21.3647 13.3836 21.0669L52.3305 12.0719C53.7918 11.7145 55.253 12.7272 55.534 14.276L60.9292 40.5461C61.2664 42.0354 60.3672 43.5842 58.906 43.882Z" fill="#872BFF"/>
<path d="M16.6995 50.673L11.3042 24.4624L16.6995 50.673Z" fill="#383E56"/>
<path d="M56.2092 17.2134L11.9489 27.4305L13.0492 32.7854L57.3095 22.5683L56.2092 17.2134Z" fill="#5B5D6E"/>
<path opacity="0.15" d="M54.2976 28.2747V55.1406C54.2976 55.7959 54.0728 56.4511 53.6794 56.9277C53.2298 57.3447 52.6116 57.583 51.9934 57.583H12.0911C10.5736 57.583 9.39343 56.2724 9.39343 54.7236V27.8578C9.39343 27.2025 9.61823 26.5472 10.0116 26.0707C10.4612 25.6537 11.0794 25.4154 11.6977 25.4154H51.5438C53.0612 25.3558 54.2976 26.6664 54.2976 28.2747Z" fill="black"/>
<path opacity="0.15" d="M54.2976 28.2747V55.1406C54.2976 55.7959 54.0728 56.4511 53.6794 56.9277C53.1735 57.583 52.4429 57.9999 51.5999 57.9999H11.6976C10.1802 57.9999 9 56.6894 9 55.1406V28.2747C9 27.3812 9.3934 26.6068 10.0116 26.0707C10.4612 25.6537 11.0794 25.4154 11.6976 25.4154H51.5437C53.0611 25.3558 54.2976 26.6664 54.2976 28.2747Z" fill="black"/>
<path d="M51.5437 57.9999H11.6976C10.1802 57.9999 9 56.6894 9 55.1406V28.2747C9 26.6664 10.2364 25.4154 11.6976 25.4154H51.5437C53.0611 25.4154 54.2414 26.7259 54.2414 28.2747V55.1406C54.2414 56.6894 53.0611 57.9999 51.5437 57.9999Z" fill="#872BFF"/>
<path d="M21.9823 45.133H14.0581C13.4961 45.133 13.0464 44.6564 13.0464 44.0607V39.2356C13.0464 38.6399 13.4961 38.1633 14.0581 38.1633H21.9823C22.5443 38.1633 22.9939 38.6399 22.9939 39.2356V44.1203C22.9939 44.6564 22.5443 45.133 21.9823 45.133Z" fill="#E5CF89"/>
<path d="M48.7899 52.9366H39.4607C39.2359 52.9366 39.011 53.1154 39.011 53.4132V53.9493C39.011 54.1876 39.1797 54.4259 39.4607 54.4259H48.7899C49.0147 54.4259 49.2395 54.2472 49.2395 53.9493V53.4132C49.2395 53.1154 49.0147 52.9366 48.7899 52.9366Z" fill="#5B5D6E"/>
<path d="M37.2126 52.9366H23.1063C22.8815 52.9366 22.6567 53.1154 22.6567 53.4132V53.9493C22.6567 54.1876 22.8253 54.4259 23.1063 54.4259H37.2126C37.4374 54.4259 37.6622 54.2472 37.6622 53.9493V53.4132C37.6622 53.1154 37.4936 52.9366 37.2126 52.9366Z" fill="#5B5D6E"/>
</svg>
