<svg width="150" height="32" viewBox="0 0 150 32" fill="none" xmlns="http://www.w3.org/2000/svg">
<path fill-rule="evenodd" clip-rule="evenodd" d="M9.79909 21.0837C9.47932 20.7951 9.05182 20.6177 8.58409 20.6177H7.96364C7.5225 20.6177 6.85841 20.0297 6.85841 19.5404V16.917V15.2623V12.0115H8.32227C9.30614 12.0115 10.1114 11.2242 10.1114 10.2622C10.1114 9.30016 9.30614 8.51281 8.32227 8.51281H6.85841V6.13209C6.85841 5.04407 5.94818 4.15472 4.83545 4.15472C3.72341 4.15472 2.81318 5.04407 2.81318 6.13209V8.51281H1.78909C0.805227 8.51281 0 9.30016 0 10.2622C0 11.2242 0.805227 12.0115 1.78909 12.0115H2.81318C2.81318 14.9303 2.81318 17.6537 2.81318 20.5724C2.78523 21.1891 3.06818 21.8191 3.06818 21.8191C3.5175 22.9511 4.53273 23.8071 5.77432 24.0538C6.01364 24.1011 6.26114 24.1265 6.51409 24.1265H8.58409C9.57068 24.1265 10.378 23.3365 10.378 22.3718C10.378 22.0224 10.2723 21.6964 10.0909 21.4224C10.0084 21.2977 9.91023 21.1844 9.79909 21.0837ZM44.7048 17.0563H36.9184C38.548 22.4151 43.1666 20.5764 45.002 19.779C45.6709 19.489 47.173 20.2204 46.993 21.4404C46.813 22.6598 45.2005 23.1931 45.2005 23.1931C45.2005 23.1931 43.1536 24.0165 40.6636 23.9218C36.1289 23.7491 32.8964 20.3197 32.7593 15.8223C32.897 11.3249 36.3866 7.72279 40.6718 7.72279C47.3393 7.72279 51.1002 17.0563 46.5825 17.0563H44.7048ZM44.7048 14.3336C44.3673 12.3942 42.733 10.8209 40.8116 10.8209C38.8909 10.8209 37.2457 12.3376 36.9184 14.3336H44.7048ZM57.6089 21.0837C57.2891 20.7951 56.8616 20.6177 56.3939 20.6177H55.7734C55.3316 20.6177 54.6675 20.0297 54.6675 19.5404V16.917V15.2623V12.0115H56.132C57.1159 12.0115 57.9211 11.2242 57.9211 10.2622C57.9211 9.30016 57.1159 8.51281 56.132 8.51281H54.6675V6.13209C54.6675 5.04407 53.758 4.15472 52.6452 4.15472C51.5332 4.15472 50.623 5.04407 50.623 6.13209V8.51281H49.5982C48.615 8.51281 47.8098 9.30016 47.8098 10.2622C47.8098 11.2242 48.615 12.0115 49.5982 12.0115H50.623C50.623 14.9303 50.623 17.6537 50.623 20.5724C50.595 21.1891 50.878 21.8191 50.878 21.8191C51.3273 22.9511 52.3425 23.8071 53.5841 24.0538C53.8234 24.1011 54.0702 24.1265 54.3239 24.1265H56.3939C57.3805 24.1265 58.1877 23.3365 58.1877 22.3718C58.1877 22.0224 58.0821 21.6964 57.9007 21.4224C57.8182 21.2977 57.72 21.1844 57.6089 21.0837ZM19.0241 9.97684V21.8764C19.0241 22.9638 19.9343 23.8538 21.0464 23.8538C22.1591 23.8538 23.0686 22.9638 23.0686 21.8764V20.5611V19.887L24.8768 17.859L25.1502 18.2263L28.7168 23.0304C29.3502 23.8825 30.5809 24.0738 31.4523 23.4545C32.3236 22.8358 32.5193 21.6324 31.8866 20.7804L27.7902 15.2643L31.455 11.1535C32.1102 10.4188 32.0311 9.29349 31.2798 8.65281C30.5284 8.0128 29.3775 8.09013 28.723 8.82481L25.6057 12.3216L23.0686 15.1676V8.90548V4.34139C23.0686 3.25403 22.1591 2.36401 21.0464 2.36401C19.9357 2.36401 19.0268 3.25203 19.0241 4.33739C19.0241 4.33872 19.0241 4.34006 19.0241 4.34139V9.97684ZM14.087 7.83746C15.1991 7.83746 16.1093 8.72748 16.1093 9.81484V21.5571C16.1093 22.6444 15.1991 23.5345 14.087 23.5345C12.9743 23.5345 12.0648 22.6444 12.0648 21.5571V9.81484C12.0648 8.72748 12.9743 7.83746 14.087 7.83746Z" fill="#191825" fill-opacity="0.5"/>
<path fill-rule="evenodd" clip-rule="evenodd" d="M99.8073 15.769C99.8073 12.6789 102.163 10.1742 105.07 10.1742C105.916 10.1742 106.716 10.3869 107.425 10.7649C107.855 10.9942 108.252 11.2843 108.605 11.6249C108.616 11.6283 108.627 11.6323 108.638 11.6356C108.773 11.6829 108.919 11.7083 109.07 11.7083C109.784 11.7083 110.363 11.1429 110.363 10.4449C110.363 10.2149 110.299 9.99889 110.189 9.81355C110.182 9.80089 110.176 9.78755 110.17 9.77355C109.841 9.46955 109.486 9.19354 109.111 8.94887C107.877 8.14552 106.41 7.68018 104.836 7.68018C100.449 7.68018 96.8918 11.3016 96.8918 15.769C96.8918 20.2364 100.449 23.8578 104.836 23.8578C106.273 23.8578 107.621 23.4692 108.783 22.7905C109.299 22.4892 109.777 22.1318 110.212 21.7251C110.215 21.7185 110.218 21.7125 110.221 21.7065C110.311 21.5345 110.363 21.3391 110.363 21.1318C110.363 20.4344 109.784 19.8691 109.07 19.8691C108.877 19.8691 108.693 19.9104 108.528 19.9858C108.364 20.1371 108.192 20.2778 108.013 20.4071C108.012 20.4078 108.012 20.4084 108.011 20.4091C107.998 20.4278 107.978 20.4404 107.952 20.4498C107.66 20.6531 107.348 20.8271 107.02 20.9665C106.417 21.2225 105.759 21.3631 105.07 21.3631C102.163 21.3631 99.8073 18.8584 99.8073 15.769ZM131.384 10.2896V9.31488C131.384 8.56886 130.76 7.95818 129.997 7.95818C129.234 7.95818 128.609 8.56886 128.609 9.31488V22.2178C128.609 22.9638 129.234 23.5745 129.997 23.5745C130.76 23.5745 131.384 22.9638 131.384 22.2178V12.2589C133.235 10.2202 136.574 8.6762 137.773 12.2589V22.2178C137.773 22.9638 138.398 23.5745 139.16 23.5745C139.923 23.5745 140.548 22.9638 140.548 22.2178V12.2589C143.257 9.59955 145.755 9.30354 147.224 12.2589V22.2178C147.224 22.9638 147.849 23.5745 148.612 23.5745C149.375 23.5745 150 22.9638 150 22.2178V11.3463C149.619 9.79222 148.801 8.77753 147.774 8.23552C145.573 7.07416 142.414 8.08685 140.548 10.6296C140.42 10.2456 140.255 9.90156 140.059 9.59755C138.333 6.92616 134.17 7.3095 131.384 10.2896ZM119.293 7.68018C123.68 7.68018 127.238 11.3016 127.238 15.769C127.238 20.2364 123.68 23.8578 119.293 23.8578C114.905 23.8578 111.348 20.2364 111.348 15.769C111.348 11.3016 114.905 7.68018 119.293 7.68018ZM119.256 10.1742C121.996 10.1742 124.216 12.6789 124.216 15.769C124.216 18.8584 121.996 21.3631 119.256 21.3631C116.517 21.3631 114.297 18.8584 114.297 15.769C114.297 12.6789 116.517 10.1742 119.256 10.1742Z" fill="#191825" fill-opacity="0.5"/>
<path fill-rule="evenodd" clip-rule="evenodd" d="M77.5439 0C86.5814 0 93.9075 7.16348 93.9075 15.9997C93.9075 24.8365 86.5814 32 77.5439 32C68.507 32 61.1809 24.8365 61.1809 15.9997C61.1809 7.16348 68.507 0 77.5439 0Z" fill="#191825" fill-opacity="0.5"/>
</svg>
